<?xml version="1.0" encoding="utf-8"?>
<!-- Generator: Adobe Illustrator 25.0.1, SVG Export Plug-In . SVG Version: 6.00 Build 0)  -->
<svg version="1.1" id="Layer_1" xmlns="http://www.w3.org/2000/svg" xmlns:xlink="http://www.w3.org/1999/xlink" x="0px" y="0px"
	 viewBox="0 0 725 89" style="enable-background:new 0 0 725 89;" xml:space="preserve">
<style type="text/css">
	.st0{fill:#0071BB;}
	.st1{fill:#FFFFFF;}
</style>
<g>
	<g>
		<path class="st0" d="M3.4,11.7h5.8c5.3,0,7.6,2.9,7.6,6.3c0,2.5-1.2,4.5-3.3,5.4v0.1c2.8,0.6,4.8,2.9,4.8,6c0,4.2-2.9,7-8.4,7H3.4
			V11.7z M8.9,22.6c3.3,0,5.1-1.6,5.1-4.4c0-2.5-1.4-4.3-5-4.3H6.2v8.6H8.9z M9.9,34.2c3.3,0,5.6-1.3,5.6-4.6c0-2.8-2.1-4.6-5.2-4.6
			h-4v9.2H9.9z"/>
		<path class="st0" d="M30.8,37.9c-2.3,6.5-5,7.5-7.9,7.5c-1.3,0-2.3-0.2-3.2-0.6l0.7-2.3c0.7,0.3,1.5,0.5,2.4,0.5
			c2.3,0,4.3-1.7,5.6-6.4l-7.8-17.9h3l6.1,14.4h0.1l4.7-14.4h2.9L30.8,37.9z"/>
		<path class="st0" d="M47.8,27.8c0-5.2,3.3-9.5,8.8-9.5c1.8,0,3.3,0.5,4.4,1.1v2.4c-1.2-0.7-2.6-1.2-4.3-1.2c-3.8,0-6.1,3-6.1,7
			c0,4.4,2.3,6.9,5.9,6.9c1.9,0,3.2-0.6,4.3-1.2l0.9,2c-1.3,0.9-3.3,1.6-5.5,1.6C50.8,36.9,47.8,32.8,47.8,27.8z"/>
		<path class="st0" d="M64.9,9.9h2.7v22.5c0,1.5,0.5,1.9,1.4,1.9c0.3,0,0.8-0.2,1.1-0.3l0.6,2.2c-0.7,0.3-1.7,0.5-2.5,0.5
			c-2.3,0-3.3-1.3-3.3-3.5V9.9z"/>
		<path class="st0" d="M73.8,12.8c0-1.1,0.8-1.9,1.8-1.9c1.1,0,1.9,0.8,1.9,1.9c0,1.1-0.8,1.8-1.9,1.8
			C74.5,14.7,73.8,13.9,73.8,12.8z M74.3,18.7H77v17.8h-2.7V18.7z"/>
		<path class="st0" d="M81.4,27.8c0-5.2,3.3-9.5,8.8-9.5c1.8,0,3.3,0.5,4.4,1.1v2.4c-1.2-0.7-2.6-1.2-4.3-1.2c-3.8,0-6.1,3-6.1,7
			c0,4.4,2.3,6.9,5.9,6.9c1.9,0,3.2-0.6,4.3-1.2l0.9,2c-1.3,0.9-3.3,1.6-5.5,1.6C84.3,36.9,81.4,32.8,81.4,27.8z"/>
		<path class="st0" d="M98.4,9.9h2.7v15.4h0.1l6.8-6.5h3.3l-7.8,7.5l8.6,10.3h-3.3l-7.6-9.1h-0.1v9.1h-2.7V9.9z"/>
		<path class="st0" d="M114.7,12.8c0-1.1,0.8-1.9,1.8-1.9c1.1,0,1.9,0.8,1.9,1.9c0,1.1-0.8,1.8-1.9,1.8
			C115.5,14.7,114.7,13.9,114.7,12.8z M115.2,18.7h2.7v17.8h-2.7V18.7z"/>
		<path class="st0" d="M123.3,18.7h2.3L126,21c2-1.7,4-2.7,6.2-2.7c2.8,0,5.3,1.8,5.3,6.2v12h-2.7V25.4c0-2.7-0.7-4.7-3.2-4.7
			c-2,0-3.8,1.2-5.5,2.7v13.1h-2.8V18.7z"/>
		<path class="st0" d="M140.6,40.3c0-1.8,1.1-3.5,3.3-4.6c-0.8-0.5-1.3-1.3-1.3-2.2c0-0.8,0.3-2.1,1.9-3.5c-1.7-1.1-2.7-3-2.7-5.4
			c0-3.6,2.7-6.3,6.5-6.3c1.5,0,2.6,0.3,3.3,0.7c0.2,0.1,0.3,0.1,0.4,0c0.9-0.9,2-1.5,3.6-1.5c0.5,0,0.9,0.1,1.1,0.1l-0.7,2.2
			c-0.3-0.1-0.7-0.1-1-0.1c-0.6,0-1.2,0.2-1.7,0.5c1.4,1.2,2,2.9,2,4.6c0,3.8-2.8,6.4-6.9,6.4c-0.9,0-1.7-0.2-2.3-0.4
			c-0.7,0.8-0.9,1.4-0.9,2c0,3.5,11.7,0.4,11.7,7c0,3.3-3.3,5.6-8.6,5.6C143.7,45.4,140.6,43.5,140.6,40.3z M154.2,40.1
			c0-3.2-5.3-2.7-8.6-3.6c-0.9,0.6-2.4,1.6-2.4,3.3c0,2.1,2.3,3.4,5.5,3.4C152.4,43.2,154.2,41.8,154.2,40.1z M152.6,24.7
			c0-2.4-1.7-4.1-4-4.1c-2.4,0-4,1.6-4,4.1c0,2.4,1.5,4.2,4,4.2C150.9,28.9,152.6,27.4,152.6,24.7z"/>
		<path class="st0" d="M168.7,14.8c0-1.6,0.5-3.4,1.5-5.3l1.5,0.4c-0.4,1.3-0.5,2.4-0.5,3.5c0,1.8,0.4,3.2,1.2,4.8l-2.6,1.2
			C169.1,17.8,168.7,16.4,168.7,14.8z M174.6,14.8c0-1.6,0.5-3.4,1.5-5.3l1.6,0.4c-0.4,1.3-0.6,2.4-0.6,3.5c0,1.8,0.5,3.2,1.2,4.8
			l-2.5,1.2C175.1,17.8,174.6,16.4,174.6,14.8z"/>
		<path class="st0" d="M183.9,32.8c1.2,0.8,3.1,1.7,5.4,1.7c2.7,0,5-1.1,5-4c0-5.9-10.9-5.2-10.9-12.6c0-3.5,2.7-6.3,7.3-6.3
			c2.3,0,4.3,0.6,5.4,1.1v2.6c-1.5-0.9-3.4-1.4-5.3-1.4c-2.2,0-4.5,1-4.5,3.6c0,5.6,10.9,5,10.9,12.7c0,4.1-3.2,6.6-7.9,6.6
			c-2.8,0-5-0.9-6.5-1.9L183.9,32.8z"/>
		<path class="st0" d="M202.1,33.6c-0.3-1-0.5-1.9-0.5-3.2V18.7h2.8v10.9c0,1.2,0,2,0.3,2.8c0.5,1.4,1.5,2,2.9,2
			c2.1,0,4.1-1.3,5-2.5V18.7h2.7v11.8c0,3.5,0.2,5.1,0.4,6h-2.5l-0.5-2.1c-1.6,1.4-3.6,2.4-5.9,2.4
			C205.2,36.9,202.9,36.1,202.1,33.6z"/>
		<path class="st0" d="M220.8,35.8V9.9h2.7v9.2c1.2-0.5,2.3-0.8,4-0.8c4.4,0,8,3,8,8.8c0,6.2-4.1,9.8-9.8,9.8
			C223.5,36.9,221.8,36.3,220.8,35.8z M232.7,27.2c0-3.9-1.9-6.6-5.5-6.6c-1.9,0-3,0.7-3.7,0.9V34c0.9,0.3,1.8,0.5,2.6,0.5
			C230,34.5,232.7,31.7,232.7,27.2z"/>
		<path class="st0" d="M239.4,18.7h2.3l0.3,2.3c1.9-1.6,3.9-2.7,6.2-2.7c2.1,0,3.8,1,4.6,3c2.1-1.9,4.4-3,6.6-3
			c2.9,0,5.3,1.8,5.3,6.2v12H262V25.4c0-2.6-0.6-4.6-3.1-4.6c-1.9,0-3.8,1.2-5.5,2.6c0,0.4,0.1,0.8,0.1,1.1v12h-2.7V25.4
			c0-2.6-0.6-4.7-3.1-4.7c-2,0-3.8,1.2-5.4,2.6v13.1h-2.8V18.7z"/>
		<path class="st0" d="M269.5,12.8c0-1.1,0.8-1.9,1.8-1.9c1.1,0,1.9,0.8,1.9,1.9c0,1.1-0.8,1.8-1.9,1.8
			C270.3,14.7,269.5,13.9,269.5,12.8z M270,18.7h2.7v17.8H270V18.7z"/>
		<path class="st0" d="M279.5,32.7V21h-3v-2.3h3v-4l2.7-0.9v4.9h5.3l-0.8,2.3h-4.5v11.3c0,1.5,0.6,2.2,1.8,2.2c1.2,0,2.2-0.5,2.9-1
			l1,2c-1.1,0.8-2.7,1.4-4.5,1.4C280.9,36.9,279.5,35.4,279.5,32.7z"/>
		<path class="st0" d="M294.8,14.1c0,1.6-0.5,3.4-1.5,5.3l-1.6-0.3c0.4-1.3,0.6-2.4,0.6-3.5c0-1.8-0.5-3.2-1.2-4.8l2.5-1.2
			C294.3,11.1,294.8,12.5,294.8,14.1z M300.7,14.1c0,1.6-0.5,3.4-1.5,5.3l-1.5-0.3c0.4-1.3,0.5-2.4,0.5-3.5c0-1.8-0.4-3.2-1.2-4.8
			l2.6-1.2C300.3,11.1,300.7,12.5,300.7,14.1z"/>
		<path class="st0" d="M314.9,11.7h2.8v24.8h-2.8V11.7z"/>
		<path class="st0" d="M341.8,34.5c-1.4,1.3-3.1,2.4-5.3,2.4c-3.2,0-5.6-2.1-5.6-5.5c0-2.4,1.2-4,3-4.8c1.2-0.6,2.6-0.8,4.4-0.9
			l3.4-0.1v-1.1c0-2.7-1.6-3.9-3.8-3.9c-2.1,0-3.6,0.7-4.9,1.5l-1.1-2c2.1-1.3,4.3-1.8,6.2-1.8c3.7,0,6.3,1.8,6.3,6.1v6.1
			c0,3.5,0.1,5.2,0.3,6.1h-2.4L341.8,34.5z M338.6,27.8c-1.5,0-2.6,0.3-3.3,0.7c-1,0.6-1.5,1.6-1.5,2.7c0,2,1.3,3.3,3.3,3.3
			c2.2,0,3.9-1.5,4.7-2.3v-4.5L338.6,27.8z"/>
		<path class="st0" d="M347.5,40.3c0-1.8,1.1-3.5,3.3-4.6c-0.8-0.5-1.3-1.3-1.3-2.2c0-0.8,0.3-2.1,1.9-3.5c-1.7-1.1-2.7-3-2.7-5.4
			c0-3.6,2.7-6.3,6.5-6.3c1.5,0,2.6,0.3,3.3,0.7c0.2,0.1,0.3,0.1,0.4,0c0.9-0.9,2-1.5,3.6-1.5c0.5,0,0.9,0.1,1.1,0.1l-0.7,2.2
			c-0.3-0.1-0.7-0.1-1-0.1c-0.6,0-1.2,0.2-1.7,0.5c1.4,1.2,2,2.9,2,4.6c0,3.8-2.8,6.4-6.9,6.4c-0.9,0-1.7-0.2-2.3-0.4
			c-0.7,0.8-0.9,1.4-0.9,2c0,3.5,11.7,0.4,11.7,7c0,3.3-3.3,5.6-8.6,5.6C350.6,45.4,347.5,43.5,347.5,40.3z M361.1,40.1
			c0-3.2-5.3-2.7-8.6-3.6c-0.9,0.6-2.4,1.6-2.4,3.3c0,2.1,2.3,3.4,5.5,3.4C359.3,43.2,361.1,41.8,361.1,40.1z M359.5,24.7
			c0-2.4-1.7-4.1-4-4.1c-2.4,0-4,1.6-4,4.1c0,2.4,1.5,4.2,4,4.2C357.8,28.9,359.5,27.4,359.5,24.7z"/>
		<path class="st0" d="M367.1,18.7h2.3l0.3,2.3c2-2.1,3.5-2.7,5-2.7c0.7,0,1.5,0.2,1.9,0.5l-1,2.5c-0.5-0.2-0.9-0.4-1.5-0.4
			c-1.3,0-2.6,0.8-4.3,2.6v13.1h-2.8V18.7z"/>
		<path class="st0" d="M380.6,28.1c0,3.6,2.1,6.5,5.9,6.5c1.7,0,3.2-0.5,4.4-1.2l0.9,2c-1.5,1-3.7,1.6-5.6,1.6
			c-5.6,0-8.4-4.3-8.4-9.5c0-5.4,3-9.1,7.3-9.1c4.5,0,7.1,3.5,7.1,9.1v0.7H380.6z M389.2,25.9c-0.1-2.7-1.4-5.4-4.2-5.4
			c-2.7,0-4.4,2.4-4.5,5.4H389.2z"/>
		<path class="st0" d="M398,28.1c0,3.6,2.1,6.5,5.9,6.5c1.7,0,3.2-0.5,4.4-1.2l0.9,2c-1.5,1-3.7,1.6-5.6,1.6c-5.6,0-8.4-4.3-8.4-9.5
			c0-5.4,3-9.1,7.3-9.1c4.5,0,7.1,3.5,7.1,9.1v0.7H398z M406.6,25.9c-0.1-2.7-1.4-5.4-4.2-5.4c-2.7,0-4.4,2.4-4.5,5.4H406.6z"/>
		<path class="st0" d="M423.4,32.7V21h-3v-2.3h3v-4l2.7-0.9v4.9h5.3l-0.8,2.3h-4.5v11.3c0,1.5,0.6,2.2,1.8,2.2c1.2,0,2.2-0.5,2.9-1
			l1,2c-1.1,0.8-2.7,1.4-4.5,1.4C424.8,36.9,423.4,35.4,423.4,32.7z"/>
		<path class="st0" d="M434.1,27.6c0-5.2,3.2-9.3,8.2-9.3c4.9,0,8.2,4.1,8.2,9.3c0,5.2-3.2,9.3-8.2,9.3
			C437.3,36.9,434.1,32.8,434.1,27.6z M447.6,27.6c0-4.1-2.1-7-5.3-7c-3.3,0-5.4,2.9-5.4,7c0,4.1,2.1,6.9,5.3,6.9
			C445.6,34.5,447.6,31.6,447.6,27.6z"/>
		<path class="st0" d="M464.4,32.7V21h-3v-2.3h3v-4l2.7-0.9v4.9h5.3l-0.8,2.3h-4.5v11.3c0,1.5,0.6,2.2,1.8,2.2c1.2,0,2.2-0.5,2.9-1
			l1,2c-1.1,0.8-2.7,1.4-4.5,1.4C465.8,36.9,464.4,35.4,464.4,32.7z"/>
		<path class="st0" d="M476.2,9.9h2.7V21c1.9-1.6,3.9-2.7,6.2-2.7c2.8,0,5.3,1.8,5.3,6.2v12h-2.7V25.4c0-2.7-0.7-4.7-3.2-4.7
			c-2,0-3.8,1.2-5.5,2.7v13.1h-2.7V9.9z"/>
		<path class="st0" d="M497.1,28.1c0,3.6,2.1,6.5,5.9,6.5c1.7,0,3.2-0.5,4.4-1.2l0.9,2c-1.5,1-3.7,1.6-5.6,1.6
			c-5.6,0-8.4-4.3-8.4-9.5c0-5.4,3-9.1,7.3-9.1c4.5,0,7.1,3.5,7.1,9.1v0.7H497.1z M505.8,25.9c-0.1-2.7-1.4-5.4-4.2-5.4
			c-2.7,0-4.4,2.4-4.5,5.4H505.8z"/>
		<path class="st0" d="M520.2,27.8c0-5.2,3.3-9.5,8.8-9.5c1.8,0,3.3,0.5,4.4,1.1v2.4c-1.2-0.7-2.6-1.2-4.3-1.2c-3.8,0-6.1,3-6.1,7
			c0,4.4,2.3,6.9,5.9,6.9c1.9,0,3.2-0.6,4.3-1.2l0.9,2c-1.3,0.9-3.3,1.6-5.5,1.6C523.2,36.9,520.2,32.8,520.2,27.8z"/>
		<path class="st0" d="M536.2,27.6c0-5.2,3.2-9.3,8.2-9.3c4.9,0,8.2,4.1,8.2,9.3c0,5.2-3.2,9.3-8.2,9.3
			C539.4,36.9,536.2,32.8,536.2,27.6z M549.7,27.6c0-4.1-2.1-7-5.3-7c-3.3,0-5.4,2.9-5.4,7c0,4.1,2.1,6.9,5.3,6.9
			C547.7,34.5,549.7,31.6,549.7,27.6z"/>
		<path class="st0" d="M556.5,18.7h2.3l0.3,2.3c1.9-1.6,3.9-2.7,6.2-2.7c2.1,0,3.8,1,4.6,3c2.1-1.9,4.4-3,6.6-3
			c2.9,0,5.3,1.8,5.3,6.2v12h-2.7V25.4c0-2.6-0.6-4.6-3.1-4.6c-1.9,0-3.8,1.2-5.5,2.6c0,0.4,0.1,0.8,0.1,1.1v12h-2.7V25.4
			c0-2.6-0.6-4.7-3.1-4.7c-2,0-3.8,1.2-5.4,2.6v13.1h-2.8V18.7z"/>
		<path class="st0" d="M586.7,19.3c1.9-0.7,4-1.1,5.9-1.1c5.6,0,9,3.4,9,9.3c0,5.8-3.8,9.4-9,9.4c-1.1,0-2.3-0.3-3.1-0.6v9.2h-2.8
			V19.3z M592.5,34.5c4,0,6.2-2.8,6.2-7.1c0-4.7-2.7-6.8-6.2-6.8c-1.1,0-2,0.2-3,0.5v12.7C590.5,34.2,591.4,34.5,592.5,34.5z"/>
		<path class="st0" d="M607.5,28.1c0,3.6,2.1,6.5,5.9,6.5c1.7,0,3.2-0.5,4.4-1.2l0.9,2c-1.5,1-3.7,1.6-5.6,1.6
			c-5.6,0-8.4-4.3-8.4-9.5c0-5.4,3-9.1,7.3-9.1c4.5,0,7.1,3.5,7.1,9.1v0.7H607.5z M616.1,25.9c-0.1-2.7-1.4-5.4-4.2-5.4
			c-2.7,0-4.4,2.4-4.5,5.4H616.1z"/>
		<path class="st0" d="M624.4,32.7V21h-3v-2.3h3v-4l2.7-0.9v4.9h5.3l-0.8,2.3h-4.5v11.3c0,1.5,0.6,2.2,1.8,2.2c1.2,0,2.2-0.5,2.9-1
			l1,2c-1.1,0.8-2.7,1.4-4.5,1.4C625.8,36.9,624.4,35.4,624.4,32.7z"/>
		<path class="st0" d="M636,12.8c0-1.1,0.8-1.9,1.8-1.9c1.1,0,1.9,0.8,1.9,1.9c0,1.1-0.8,1.8-1.9,1.8C636.7,14.7,636,13.9,636,12.8z
			 M636.4,18.7h2.7v17.8h-2.7V18.7z"/>
		<path class="st0" d="M645.9,32.7V21h-3v-2.3h3v-4l2.7-0.9v4.9h5.3l-0.8,2.3h-4.5v11.3c0,1.5,0.6,2.2,1.8,2.2c1.2,0,2.2-0.5,2.9-1
			l1,2c-1.1,0.8-2.7,1.4-4.5,1.4C647.3,36.9,645.9,35.4,645.9,32.7z"/>
		<path class="st0" d="M657.5,12.8c0-1.1,0.8-1.9,1.8-1.9c1.1,0,1.9,0.8,1.9,1.9c0,1.1-0.8,1.8-1.9,1.8
			C658.2,14.7,657.5,13.9,657.5,12.8z M658,18.7h2.7v17.8H658V18.7z"/>
		<path class="st0" d="M665.1,27.6c0-5.2,3.2-9.3,8.2-9.3c4.9,0,8.2,4.1,8.2,9.3c0,5.2-3.2,9.3-8.2,9.3
			C668.3,36.9,665.1,32.8,665.1,27.6z M678.6,27.6c0-4.1-2.1-7-5.3-7c-3.3,0-5.4,2.9-5.4,7c0,4.1,2.1,6.9,5.3,6.9
			C676.6,34.5,678.6,31.6,678.6,27.6z"/>
		<path class="st0" d="M685.4,18.7h2.3l0.3,2.3c2-1.7,4-2.7,6.2-2.7c2.8,0,5.3,1.8,5.3,6.2v12h-2.7V25.4c0-2.7-0.7-4.7-3.2-4.7
			c-2,0-3.8,1.2-5.5,2.7v13.1h-2.8V18.7z"/>
		<path class="st0" d="M708.1,14.1c0,1.6-0.5,3.4-1.5,5.3l-1.6-0.3c0.4-1.3,0.6-2.4,0.6-3.5c0-1.8-0.5-3.2-1.2-4.8l2.5-1.2
			C707.7,11.1,708.1,12.5,708.1,14.1z"/>
		<path class="st0" d="M712.5,33.2c1,0.6,2.4,1.3,4.4,1.3c2.1,0,3.8-0.8,3.8-2.9c0-3.9-8.3-2.6-8.3-8.5c0-2.7,2.1-4.9,6-4.9
			c1.7,0,3.2,0.4,4.4,0.8v2.4c-1.2-0.5-2.6-1-4.3-1c-1.7,0-3.4,0.6-3.4,2.5c0,4,8.4,2.6,8.4,8.6c0,3.5-2.9,5.2-6.6,5.2
			c-2.3,0-4.2-0.8-5.3-1.5L712.5,33.2z"/>
		<path class="st0" d="M186.1,76.8v-8.6h-3.3v-4.4h3.3v-4.2l5.7-1.6v5.8h5.4l-1.3,4.4h-4.1v7.1c0,1.7,0.5,2.3,1.7,2.3
			c0.9,0,1.9-0.3,2.6-0.8l1.6,3.8c-1.4,0.9-3.9,1.4-5.7,1.4C188.3,82,186.1,80,186.1,76.8z"/>
		<path class="st0" d="M204.8,74.5c0.1,2.2,2,3.2,4.4,3.2c1.9,0,3.3-0.5,4.6-1.2l1.7,3.8c-2.1,1.3-4.4,1.7-6.7,1.7
			c-7.1,0-9.6-4.5-9.6-9.1c0-5.3,2.9-9.6,8.5-9.6c5.3,0,8.5,3.7,8.5,9.7v1.3H204.8z M210.4,70.7c0-1.5-0.8-3.1-2.9-3.1
			c-1.9,0-2.8,1.5-2.8,3.1H210.4z"/>
		<path class="st0" d="M219,63.8h4.8l0.6,1.8c1.4-1.2,2.8-2.3,4.8-2.3c0.9,0,2,0.3,2.9,0.9l-2,4.7c-1-0.6-2-0.8-2.4-0.8
			c-1.1,0-1.8,0.3-3.1,1.2v12.2H219V63.8z"/>
		<path class="st0" d="M233.8,63.8h4.8l0.5,1.8c1.7-1.2,3.7-2.3,5.8-2.3c2.3,0,3.9,0.9,4.9,2.5c2.1-1.7,4.4-2.5,6.2-2.5
			c3.3,0,6.3,1.6,6.3,6.6v11.7h-5.7V71.5c0-1.7-0.3-3.2-2.4-3.2c-1.1,0-2.4,0.4-3.4,1.2c0,0.1,0,0.2,0,0.4v11.8h-5.7V71.5
			c0-1.7-0.2-3.2-2.3-3.2c-1.1,0-2.4,0.4-3.4,1.2v12.2h-5.7V63.8z"/>
		<path class="st0" d="M266.6,76.1c1.5,1,3.5,1.6,5.1,1.6c1.6,0,2.7-0.3,2.7-1.2c0-2.4-8.4-1.4-8.4-7.4c0-3.4,2.9-5.7,7.3-5.7
			c2.1,0,4.1,0.3,5.7,0.9V69c-1.7-0.7-3.5-1.2-5.5-1.2c-1.4,0-2,0.4-2,1.1c0,2,8.4,1.2,8.4,7.5c0,4.2-3.7,5.7-7.7,5.7
			c-3.1,0-5.7-0.8-7.4-1.9L266.6,76.1z"/>
		<path class="st0" d="M301.1,80.1c-1.2,1.1-2.7,1.9-5,1.9c-3.5,0-6.1-2.4-6.1-5.8c0-2.4,1.1-3.9,3-4.9c1.3-0.7,2.9-1,4.7-1.1
			l2.8-0.1v-0.2c0-1.7-1.2-2.3-3.1-2.3c-1.5,0-3.2,0.4-4.5,1.1l-1.8-3.6c2.1-1.1,4.5-1.7,7.3-1.7c5.5,0,7.8,2.4,7.8,6.8v8
			c0,1.1,0,2.5,0.3,3.5h-4.7L301.1,80.1z M298.6,73.8c-0.9,0-1.6,0.2-2.1,0.5c-0.5,0.3-0.8,0.8-0.8,1.5c0,1.2,0.9,1.8,2.2,1.8
			c1.2,0,2.2-0.4,2.6-0.6v-3.3L298.6,73.8z"/>
		<path class="st0" d="M310,63.8h4.9l0.6,1.8c1.8-1.4,3.8-2.3,6-2.3c2.9,0,6,1.1,6,6.6v11.6h-5.7v-9.9c0-1.8-0.3-3.4-2.4-3.4
			c-1.2,0-2.6,0.5-3.6,1.3v12H310V63.8z"/>
		<path class="st0" d="M330.4,72.9c0-5.5,4.1-9.5,10.2-9.5c0.4,0,1.5,0,2,0.1V55h5.7v25.6c-2.1,1-5,1.4-7.1,1.4
			C334.9,82,330.4,78.7,330.4,72.9z M342.5,77.2v-9.1c-0.5-0.1-1-0.1-1.7-0.1c-2.9,0-4.7,1.8-4.7,4.8s2.1,4.6,4.7,4.6
			C341.3,77.4,342.1,77.4,342.5,77.2z"/>
		<path class="st0" d="M359.4,72.8c0-5.8,4.6-9.4,9.8-9.4c2.6,0,4.2,0.7,5.1,1.3v4.7c-1.3-1-2.7-1.5-4.4-1.5c-3,0-4.7,2.2-4.7,4.9
			c0,3.1,1.8,4.7,4.4,4.7c1.5,0,2.7-0.5,4.1-1.2l1.6,3.8c-1.5,1.1-3.9,1.8-6.5,1.8C362.7,82,359.4,78.1,359.4,72.8z"/>
		<path class="st0" d="M376.8,72.7c0-5.4,3.8-9.3,9.4-9.3c5.5,0,9.4,3.9,9.4,9.3c0,5.4-3.8,9.3-9.4,9.3
			C380.6,82,376.8,78.1,376.8,72.7z M389.7,72.7c0-2.7-1.1-4.8-3.6-4.8c-2.5,0-3.6,2.1-3.6,4.8c0,2.7,1.1,4.9,3.6,4.9
			C388.7,77.5,389.7,75.4,389.7,72.7z"/>
		<path class="st0" d="M398.5,63.8h4.9l0.6,1.8c1.8-1.4,3.8-2.3,6-2.3c2.9,0,6,1.1,6,6.6v11.6h-5.7v-9.9c0-1.8-0.3-3.4-2.4-3.4
			c-1.2,0-2.6,0.5-3.6,1.3v12h-5.7V63.8z"/>
		<path class="st0" d="M418.8,72.9c0-5.5,4.1-9.5,10.2-9.5c0.4,0,1.5,0,2,0.1V55h5.7v25.6c-2.1,1-5,1.4-7.1,1.4
			C423.3,82,418.8,78.7,418.8,72.9z M431,77.2v-9.1c-0.5-0.1-1-0.1-1.7-0.1c-2.9,0-4.7,1.8-4.7,4.8s2.1,4.6,4.7,4.6
			C429.8,77.4,430.5,77.4,431,77.2z"/>
		<path class="st0" d="M440,58.5c0-1.8,1.5-3.2,3.4-3.2s3.4,1.4,3.4,3.2c0,1.8-1.5,3.3-3.4,3.3S440,60.3,440,58.5z M440.6,63.8h5.7
			v17.8h-5.7V63.8z"/>
		<path class="st0" d="M451.8,76.8v-8.6h-3.3v-4.4h3.3v-4.2l5.7-1.6v5.8h5.4l-1.3,4.4h-4.1v7.1c0,1.7,0.5,2.3,1.7,2.3
			c0.9,0,1.9-0.3,2.6-0.8l1.6,3.8c-1.4,0.9-3.9,1.4-5.7,1.4C454.1,82,451.8,80,451.8,76.8z"/>
		<path class="st0" d="M464.9,58.5c0-1.8,1.5-3.2,3.4-3.2s3.4,1.4,3.4,3.2c0,1.8-1.5,3.3-3.4,3.3S464.9,60.3,464.9,58.5z
			 M465.4,63.8h5.7v17.8h-5.7V63.8z"/>
		<path class="st0" d="M474,72.7c0-5.4,3.8-9.3,9.4-9.3c5.5,0,9.4,3.9,9.4,9.3c0,5.4-3.8,9.3-9.4,9.3C477.9,82,474,78.1,474,72.7z
			 M487,72.7c0-2.7-1.1-4.8-3.6-4.8c-2.5,0-3.6,2.1-3.6,4.8c0,2.7,1.1,4.9,3.6,4.9C485.9,77.5,487,75.4,487,72.7z"/>
		<path class="st0" d="M495.8,63.8h4.9l0.6,1.8c1.8-1.4,3.8-2.3,6-2.3c2.9,0,6,1.1,6,6.6v11.6h-5.7v-9.9c0-1.8-0.3-3.4-2.4-3.4
			c-1.2,0-2.6,0.5-3.6,1.3v12h-5.7V63.8z"/>
		<path class="st0" d="M517.3,76.1c1.5,1,3.5,1.6,5.1,1.6c1.6,0,2.7-0.3,2.7-1.2c0-2.4-8.4-1.4-8.4-7.4c0-3.4,2.9-5.7,7.3-5.7
			c2.1,0,4.1,0.3,5.7,0.9V69c-1.7-0.7-3.5-1.2-5.5-1.2c-1.4,0-2,0.4-2,1.1c0,2,8.4,1.2,8.4,7.5c0,4.2-3.7,5.7-7.7,5.7
			c-3.1,0-5.7-0.8-7.4-1.9L517.3,76.1z"/>
		<path class="st0" d="M534.2,78.9c0-1.8,1.4-3.1,3-3.1c1.7,0,3,1.3,3,3.1c0,1.8-1.4,3.1-3,3.1C535.6,82,534.2,80.7,534.2,78.9z"/>
	</g>
</g>
<g>
	<g>
		<path class="st1" d="M3.4,8.7h5.8c5.3,0,7.6,2.9,7.6,6.3c0,2.5-1.2,4.5-3.3,5.4v0.1c2.8,0.6,4.8,2.9,4.8,6c0,4.2-2.9,7-8.4,7H3.4
			V8.7z M8.9,19.6c3.3,0,5.1-1.6,5.1-4.4c0-2.5-1.4-4.3-5-4.3H6.2v8.6H8.9z M9.9,31.2c3.3,0,5.6-1.3,5.6-4.6c0-2.8-2.1-4.6-5.2-4.6
			h-4v9.2H9.9z"/>
		<path class="st1" d="M30.8,34.9c-2.3,6.5-5,7.5-7.9,7.5c-1.3,0-2.3-0.2-3.2-0.6l0.7-2.3c0.7,0.3,1.5,0.5,2.4,0.5
			c2.3,0,4.3-1.7,5.6-6.4l-7.8-17.9h3l6.1,14.4h0.1l4.7-14.4h2.9L30.8,34.9z"/>
		<path class="st1" d="M47.8,24.8c0-5.2,3.3-9.5,8.8-9.5c1.8,0,3.3,0.5,4.4,1.1v2.4c-1.2-0.7-2.6-1.2-4.3-1.2c-3.8,0-6.1,3-6.1,7
			c0,4.4,2.3,6.9,5.9,6.9c1.9,0,3.2-0.6,4.3-1.2l0.9,2c-1.3,0.9-3.3,1.6-5.5,1.6C50.8,33.9,47.8,29.8,47.8,24.8z"/>
		<path class="st1" d="M64.9,6.9h2.7v22.5c0,1.5,0.5,1.9,1.4,1.9c0.3,0,0.8-0.2,1.1-0.3l0.6,2.2c-0.7,0.3-1.7,0.5-2.5,0.5
			c-2.3,0-3.3-1.3-3.3-3.5V6.9z"/>
		<path class="st1" d="M73.8,9.8c0-1.1,0.8-1.9,1.8-1.9c1.1,0,1.9,0.8,1.9,1.9c0,1.1-0.8,1.8-1.9,1.8C74.5,11.7,73.8,10.9,73.8,9.8z
			 M74.3,15.7H77v17.8h-2.7V15.7z"/>
		<path class="st1" d="M81.4,24.8c0-5.2,3.3-9.5,8.8-9.5c1.8,0,3.3,0.5,4.4,1.1v2.4c-1.2-0.7-2.6-1.2-4.3-1.2c-3.8,0-6.1,3-6.1,7
			c0,4.4,2.3,6.9,5.9,6.9c1.9,0,3.2-0.6,4.3-1.2l0.9,2c-1.3,0.9-3.3,1.6-5.5,1.6C84.3,33.9,81.4,29.8,81.4,24.8z"/>
		<path class="st1" d="M98.4,6.9h2.7v15.4h0.1l6.8-6.5h3.3l-7.8,7.5l8.6,10.3h-3.3l-7.6-9.1h-0.1v9.1h-2.7V6.9z"/>
		<path class="st1" d="M114.7,9.8c0-1.1,0.8-1.9,1.8-1.9c1.1,0,1.9,0.8,1.9,1.9c0,1.1-0.8,1.8-1.9,1.8
			C115.5,11.7,114.7,10.9,114.7,9.8z M115.2,15.7h2.7v17.8h-2.7V15.7z"/>
		<path class="st1" d="M123.3,15.7h2.3L126,18c2-1.7,4-2.7,6.2-2.7c2.8,0,5.3,1.8,5.3,6.2v12h-2.7V22.4c0-2.7-0.7-4.7-3.2-4.7
			c-2,0-3.8,1.2-5.5,2.7v13.1h-2.8V15.7z"/>
		<path class="st1" d="M140.6,37.3c0-1.8,1.1-3.5,3.3-4.6c-0.8-0.5-1.3-1.3-1.3-2.2c0-0.8,0.3-2.1,1.9-3.5c-1.7-1.1-2.7-3-2.7-5.4
			c0-3.6,2.7-6.3,6.5-6.3c1.5,0,2.6,0.3,3.3,0.7c0.2,0.1,0.3,0.1,0.4,0c0.9-0.9,2-1.5,3.6-1.5c0.5,0,0.9,0.1,1.1,0.1l-0.7,2.2
			c-0.3-0.1-0.7-0.1-1-0.1c-0.6,0-1.2,0.2-1.7,0.5c1.4,1.2,2,2.9,2,4.6c0,3.8-2.8,6.4-6.9,6.4c-0.9,0-1.7-0.2-2.3-0.4
			c-0.7,0.8-0.9,1.4-0.9,2c0,3.5,11.7,0.4,11.7,7c0,3.3-3.3,5.6-8.6,5.6C143.7,42.4,140.6,40.5,140.6,37.3z M154.2,37.1
			c0-3.2-5.3-2.7-8.6-3.6c-0.9,0.6-2.4,1.6-2.4,3.3c0,2.1,2.3,3.4,5.5,3.4C152.4,40.2,154.2,38.8,154.2,37.1z M152.6,21.7
			c0-2.4-1.7-4.1-4-4.1c-2.4,0-4,1.6-4,4.1c0,2.4,1.5,4.2,4,4.2C150.9,25.9,152.6,24.4,152.6,21.7z"/>
		<path class="st1" d="M168.7,11.8c0-1.6,0.5-3.4,1.5-5.3l1.5,0.4c-0.4,1.3-0.5,2.4-0.5,3.5c0,1.8,0.4,3.2,1.2,4.8l-2.6,1.2
			C169.1,14.8,168.7,13.4,168.7,11.8z M174.6,11.8c0-1.6,0.5-3.4,1.5-5.3l1.6,0.4c-0.4,1.3-0.6,2.4-0.6,3.5c0,1.8,0.5,3.2,1.2,4.8
			l-2.5,1.2C175.1,14.8,174.6,13.4,174.6,11.8z"/>
		<path class="st1" d="M183.9,29.8c1.2,0.8,3.1,1.7,5.4,1.7c2.7,0,5-1.1,5-4c0-5.9-10.9-5.2-10.9-12.6c0-3.5,2.7-6.3,7.3-6.3
			c2.3,0,4.3,0.6,5.4,1.1v2.6c-1.5-0.9-3.4-1.4-5.3-1.4c-2.2,0-4.5,1-4.5,3.6c0,5.6,10.9,5,10.9,12.7c0,4.1-3.2,6.6-7.9,6.6
			c-2.8,0-5-0.9-6.5-1.9L183.9,29.8z"/>
		<path class="st1" d="M202.1,30.6c-0.3-1-0.5-1.9-0.5-3.2V15.7h2.8v10.9c0,1.2,0,2,0.3,2.8c0.5,1.4,1.5,2,2.9,2
			c2.1,0,4.1-1.3,5-2.5V15.7h2.7v11.8c0,3.5,0.2,5.1,0.4,6h-2.5l-0.5-2.1c-1.6,1.4-3.6,2.4-5.9,2.4
			C205.2,33.9,202.9,33.1,202.1,30.6z"/>
		<path class="st1" d="M220.8,32.8V6.9h2.7v9.2c1.2-0.5,2.3-0.8,4-0.8c4.4,0,8,3,8,8.8c0,6.2-4.1,9.8-9.8,9.8
			C223.5,33.9,221.8,33.3,220.8,32.8z M232.7,24.2c0-3.9-1.9-6.6-5.5-6.6c-1.9,0-3,0.7-3.7,0.9V31c0.9,0.3,1.8,0.5,2.6,0.5
			C230,31.5,232.7,28.7,232.7,24.2z"/>
		<path class="st1" d="M239.4,15.7h2.3l0.3,2.3c1.9-1.6,3.9-2.7,6.2-2.7c2.1,0,3.8,1,4.6,3c2.1-1.9,4.4-3,6.6-3
			c2.9,0,5.3,1.8,5.3,6.2v12H262V22.4c0-2.6-0.6-4.6-3.1-4.6c-1.9,0-3.8,1.2-5.5,2.6c0,0.4,0.1,0.8,0.1,1.1v12h-2.7V22.4
			c0-2.6-0.6-4.7-3.1-4.7c-2,0-3.8,1.2-5.4,2.6v13.1h-2.8V15.7z"/>
		<path class="st1" d="M269.5,9.8c0-1.1,0.8-1.9,1.8-1.9c1.1,0,1.9,0.8,1.9,1.9c0,1.1-0.8,1.8-1.9,1.8
			C270.3,11.7,269.5,10.9,269.5,9.8z M270,15.7h2.7v17.8H270V15.7z"/>
		<path class="st1" d="M279.5,29.7V18h-3v-2.3h3v-4l2.7-0.9v4.9h5.3l-0.8,2.3h-4.5v11.3c0,1.5,0.6,2.2,1.8,2.2c1.2,0,2.2-0.5,2.9-1
			l1,2c-1.1,0.8-2.7,1.4-4.5,1.4C280.9,33.9,279.5,32.4,279.5,29.7z"/>
		<path class="st1" d="M294.8,11.1c0,1.6-0.5,3.4-1.5,5.3l-1.6-0.3c0.4-1.3,0.6-2.4,0.6-3.5c0-1.8-0.5-3.2-1.2-4.8l2.5-1.2
			C294.3,8.1,294.8,9.5,294.8,11.1z M300.7,11.1c0,1.6-0.5,3.4-1.5,5.3l-1.5-0.3c0.4-1.3,0.5-2.4,0.5-3.5c0-1.8-0.4-3.2-1.2-4.8
			l2.6-1.2C300.3,8.1,300.7,9.5,300.7,11.1z"/>
		<path class="st1" d="M314.9,8.7h2.8v24.8h-2.8V8.7z"/>
		<path class="st1" d="M341.8,31.5c-1.4,1.3-3.1,2.4-5.3,2.4c-3.2,0-5.6-2.1-5.6-5.5c0-2.4,1.2-4,3-4.8c1.2-0.6,2.6-0.8,4.4-0.9
			l3.4-0.1v-1.1c0-2.7-1.6-3.9-3.8-3.9c-2.1,0-3.6,0.7-4.9,1.5l-1.1-2c2.1-1.3,4.3-1.8,6.2-1.8c3.7,0,6.3,1.8,6.3,6.1v6.1
			c0,3.5,0.1,5.2,0.3,6.1h-2.4L341.8,31.5z M338.6,24.8c-1.5,0-2.6,0.3-3.3,0.7c-1,0.6-1.5,1.6-1.5,2.7c0,2,1.3,3.3,3.3,3.3
			c2.2,0,3.9-1.5,4.7-2.3v-4.5L338.6,24.8z"/>
		<path class="st1" d="M347.5,37.3c0-1.8,1.1-3.5,3.3-4.6c-0.8-0.5-1.3-1.3-1.3-2.2c0-0.8,0.3-2.1,1.9-3.5c-1.7-1.1-2.7-3-2.7-5.4
			c0-3.6,2.7-6.3,6.5-6.3c1.5,0,2.6,0.3,3.3,0.7c0.2,0.1,0.3,0.1,0.4,0c0.9-0.9,2-1.5,3.6-1.5c0.5,0,0.9,0.1,1.1,0.1l-0.7,2.2
			c-0.3-0.1-0.7-0.1-1-0.1c-0.6,0-1.2,0.2-1.7,0.5c1.4,1.2,2,2.9,2,4.6c0,3.8-2.8,6.4-6.9,6.4c-0.9,0-1.7-0.2-2.3-0.4
			c-0.7,0.8-0.9,1.4-0.9,2c0,3.5,11.7,0.4,11.7,7c0,3.3-3.3,5.6-8.6,5.6C350.6,42.4,347.5,40.5,347.5,37.3z M361.1,37.1
			c0-3.2-5.3-2.7-8.6-3.6c-0.9,0.6-2.4,1.6-2.4,3.3c0,2.1,2.3,3.4,5.5,3.4C359.3,40.2,361.1,38.8,361.1,37.1z M359.5,21.7
			c0-2.4-1.7-4.1-4-4.1c-2.4,0-4,1.6-4,4.1c0,2.4,1.5,4.2,4,4.2C357.8,25.9,359.5,24.4,359.5,21.7z"/>
		<path class="st1" d="M367.1,15.7h2.3l0.3,2.3c2-2.1,3.5-2.7,5-2.7c0.7,0,1.5,0.2,1.9,0.5l-1,2.5c-0.5-0.2-0.9-0.4-1.5-0.4
			c-1.3,0-2.6,0.8-4.3,2.6v13.1h-2.8V15.7z"/>
		<path class="st1" d="M380.6,25.1c0,3.6,2.1,6.5,5.9,6.5c1.7,0,3.2-0.5,4.4-1.2l0.9,2c-1.5,1-3.7,1.6-5.6,1.6
			c-5.6,0-8.4-4.3-8.4-9.5c0-5.4,3-9.1,7.3-9.1c4.5,0,7.1,3.5,7.1,9.1v0.7H380.6z M389.2,22.9c-0.1-2.7-1.4-5.4-4.2-5.4
			c-2.7,0-4.4,2.4-4.5,5.4H389.2z"/>
		<path class="st1" d="M398,25.1c0,3.6,2.1,6.5,5.9,6.5c1.7,0,3.2-0.5,4.4-1.2l0.9,2c-1.5,1-3.7,1.6-5.6,1.6c-5.6,0-8.4-4.3-8.4-9.5
			c0-5.4,3-9.1,7.3-9.1c4.5,0,7.1,3.5,7.1,9.1v0.7H398z M406.6,22.9c-0.1-2.7-1.4-5.4-4.2-5.4c-2.7,0-4.4,2.4-4.5,5.4H406.6z"/>
		<path class="st1" d="M423.4,29.7V18h-3v-2.3h3v-4l2.7-0.9v4.9h5.3l-0.8,2.3h-4.5v11.3c0,1.5,0.6,2.2,1.8,2.2c1.2,0,2.2-0.5,2.9-1
			l1,2c-1.1,0.8-2.7,1.4-4.5,1.4C424.8,33.9,423.4,32.4,423.4,29.7z"/>
		<path class="st1" d="M434.1,24.6c0-5.2,3.2-9.3,8.2-9.3c4.9,0,8.2,4.1,8.2,9.3c0,5.2-3.2,9.3-8.2,9.3
			C437.3,33.9,434.1,29.8,434.1,24.6z M447.6,24.6c0-4.1-2.1-7-5.3-7c-3.3,0-5.4,2.9-5.4,7c0,4.1,2.1,6.9,5.3,6.9
			C445.6,31.5,447.6,28.6,447.6,24.6z"/>
		<path class="st1" d="M464.4,29.7V18h-3v-2.3h3v-4l2.7-0.9v4.9h5.3l-0.8,2.3h-4.5v11.3c0,1.5,0.6,2.2,1.8,2.2c1.2,0,2.2-0.5,2.9-1
			l1,2c-1.1,0.8-2.7,1.4-4.5,1.4C465.8,33.9,464.4,32.4,464.4,29.7z"/>
		<path class="st1" d="M476.2,6.9h2.7V18c1.9-1.6,3.9-2.7,6.2-2.7c2.8,0,5.3,1.8,5.3,6.2v12h-2.7V22.4c0-2.7-0.7-4.7-3.2-4.7
			c-2,0-3.8,1.2-5.5,2.7v13.1h-2.7V6.9z"/>
		<path class="st1" d="M497.1,25.1c0,3.6,2.1,6.5,5.9,6.5c1.7,0,3.2-0.5,4.4-1.2l0.9,2c-1.5,1-3.7,1.6-5.6,1.6
			c-5.6,0-8.4-4.3-8.4-9.5c0-5.4,3-9.1,7.3-9.1c4.5,0,7.1,3.5,7.1,9.1v0.7H497.1z M505.8,22.9c-0.1-2.7-1.4-5.4-4.2-5.4
			c-2.7,0-4.4,2.4-4.5,5.4H505.8z"/>
		<path class="st1" d="M520.2,24.8c0-5.2,3.3-9.5,8.8-9.5c1.8,0,3.3,0.5,4.4,1.1v2.4c-1.2-0.7-2.6-1.2-4.3-1.2c-3.8,0-6.1,3-6.1,7
			c0,4.4,2.3,6.9,5.9,6.9c1.9,0,3.2-0.6,4.3-1.2l0.9,2c-1.3,0.9-3.3,1.6-5.5,1.6C523.2,33.9,520.2,29.8,520.2,24.8z"/>
		<path class="st1" d="M536.2,24.6c0-5.2,3.2-9.3,8.2-9.3c4.9,0,8.2,4.1,8.2,9.3c0,5.2-3.2,9.3-8.2,9.3
			C539.4,33.9,536.2,29.8,536.2,24.6z M549.7,24.6c0-4.1-2.1-7-5.3-7c-3.3,0-5.4,2.9-5.4,7c0,4.1,2.1,6.9,5.3,6.9
			C547.7,31.5,549.7,28.6,549.7,24.6z"/>
		<path class="st1" d="M556.5,15.7h2.3l0.3,2.3c1.9-1.6,3.9-2.7,6.2-2.7c2.1,0,3.8,1,4.6,3c2.1-1.9,4.4-3,6.6-3
			c2.9,0,5.3,1.8,5.3,6.2v12h-2.7V22.4c0-2.6-0.6-4.6-3.1-4.6c-1.9,0-3.8,1.2-5.5,2.6c0,0.4,0.1,0.8,0.1,1.1v12h-2.7V22.4
			c0-2.6-0.6-4.7-3.1-4.7c-2,0-3.8,1.2-5.4,2.6v13.1h-2.8V15.7z"/>
		<path class="st1" d="M586.7,16.3c1.9-0.7,4-1.1,5.9-1.1c5.6,0,9,3.4,9,9.3c0,5.8-3.8,9.4-9,9.4c-1.1,0-2.3-0.3-3.1-0.6v9.2h-2.8
			V16.3z M592.5,31.5c4,0,6.2-2.8,6.2-7.1c0-4.7-2.7-6.8-6.2-6.8c-1.1,0-2,0.2-3,0.5v12.7C590.5,31.2,591.4,31.5,592.5,31.5z"/>
		<path class="st1" d="M607.5,25.1c0,3.6,2.1,6.5,5.9,6.5c1.7,0,3.2-0.5,4.4-1.2l0.9,2c-1.5,1-3.7,1.6-5.6,1.6
			c-5.6,0-8.4-4.3-8.4-9.5c0-5.4,3-9.1,7.3-9.1c4.5,0,7.1,3.5,7.1,9.1v0.7H607.5z M616.1,22.9c-0.1-2.7-1.4-5.4-4.2-5.4
			c-2.7,0-4.4,2.4-4.5,5.4H616.1z"/>
		<path class="st1" d="M624.4,29.7V18h-3v-2.3h3v-4l2.7-0.9v4.9h5.3l-0.8,2.3h-4.5v11.3c0,1.5,0.6,2.2,1.8,2.2c1.2,0,2.2-0.5,2.9-1
			l1,2c-1.1,0.8-2.7,1.4-4.5,1.4C625.8,33.9,624.4,32.4,624.4,29.7z"/>
		<path class="st1" d="M636,9.8c0-1.1,0.8-1.9,1.8-1.9c1.1,0,1.9,0.8,1.9,1.9c0,1.1-0.8,1.8-1.9,1.8C636.7,11.7,636,10.9,636,9.8z
			 M636.4,15.7h2.7v17.8h-2.7V15.7z"/>
		<path class="st1" d="M645.9,29.7V18h-3v-2.3h3v-4l2.7-0.9v4.9h5.3l-0.8,2.3h-4.5v11.3c0,1.5,0.6,2.2,1.8,2.2c1.2,0,2.2-0.5,2.9-1
			l1,2c-1.1,0.8-2.7,1.4-4.5,1.4C647.3,33.9,645.9,32.4,645.9,29.7z"/>
		<path class="st1" d="M657.5,9.8c0-1.1,0.8-1.9,1.8-1.9c1.1,0,1.9,0.8,1.9,1.9c0,1.1-0.8,1.8-1.9,1.8
			C658.2,11.7,657.5,10.9,657.5,9.8z M658,15.7h2.7v17.8H658V15.7z"/>
		<path class="st1" d="M665.1,24.6c0-5.2,3.2-9.3,8.2-9.3c4.9,0,8.2,4.1,8.2,9.3c0,5.2-3.2,9.3-8.2,9.3
			C668.3,33.9,665.1,29.8,665.1,24.6z M678.6,24.6c0-4.1-2.1-7-5.3-7c-3.3,0-5.4,2.9-5.4,7c0,4.1,2.1,6.9,5.3,6.9
			C676.6,31.5,678.6,28.6,678.6,24.6z"/>
		<path class="st1" d="M685.4,15.7h2.3l0.3,2.3c2-1.7,4-2.7,6.2-2.7c2.8,0,5.3,1.8,5.3,6.2v12h-2.7V22.4c0-2.7-0.7-4.7-3.2-4.7
			c-2,0-3.8,1.2-5.5,2.7v13.1h-2.8V15.7z"/>
		<path class="st1" d="M708.1,11.1c0,1.6-0.5,3.4-1.5,5.3l-1.6-0.3c0.4-1.3,0.6-2.4,0.6-3.5c0-1.8-0.5-3.2-1.2-4.8l2.5-1.2
			C707.7,8.1,708.1,9.5,708.1,11.1z"/>
		<path class="st1" d="M712.5,30.2c1,0.6,2.4,1.3,4.4,1.3c2.1,0,3.8-0.8,3.8-2.9c0-3.9-8.3-2.6-8.3-8.5c0-2.7,2.1-4.9,6-4.9
			c1.7,0,3.2,0.4,4.4,0.8v2.4c-1.2-0.5-2.6-1-4.3-1c-1.7,0-3.4,0.6-3.4,2.5c0,4,8.4,2.6,8.4,8.6c0,3.5-2.9,5.2-6.6,5.2
			c-2.3,0-4.2-0.8-5.3-1.5L712.5,30.2z"/>
		<path class="st1" d="M186.1,73.8v-8.6h-3.3v-4.4h3.3v-4.2l5.7-1.6v5.8h5.4l-1.3,4.4h-4.1v7.1c0,1.7,0.5,2.3,1.7,2.3
			c0.9,0,1.9-0.3,2.6-0.8l1.6,3.8c-1.4,0.9-3.9,1.4-5.7,1.4C188.3,79,186.1,77,186.1,73.8z"/>
		<path class="st1" d="M204.8,71.5c0.1,2.2,2,3.2,4.4,3.2c1.9,0,3.3-0.5,4.6-1.2l1.7,3.8c-2.1,1.3-4.4,1.7-6.7,1.7
			c-7.1,0-9.6-4.5-9.6-9.1c0-5.3,2.9-9.6,8.5-9.6c5.3,0,8.5,3.7,8.5,9.7v1.3H204.8z M210.4,67.7c0-1.5-0.8-3.1-2.9-3.1
			c-1.9,0-2.8,1.5-2.8,3.1H210.4z"/>
		<path class="st1" d="M219,60.8h4.8l0.6,1.8c1.4-1.2,2.8-2.3,4.8-2.3c0.9,0,2,0.3,2.9,0.9l-2,4.7c-1-0.6-2-0.8-2.4-0.8
			c-1.1,0-1.8,0.3-3.1,1.2v12.2H219V60.8z"/>
		<path class="st1" d="M233.8,60.8h4.8l0.5,1.8c1.7-1.2,3.7-2.3,5.8-2.3c2.3,0,3.9,0.9,4.9,2.5c2.1-1.7,4.4-2.5,6.2-2.5
			c3.3,0,6.3,1.6,6.3,6.6v11.7h-5.7V68.5c0-1.7-0.3-3.2-2.4-3.2c-1.1,0-2.4,0.4-3.4,1.2c0,0.1,0,0.2,0,0.4v11.8h-5.7V68.5
			c0-1.7-0.2-3.2-2.3-3.2c-1.1,0-2.4,0.4-3.4,1.2v12.2h-5.7V60.8z"/>
		<path class="st1" d="M266.6,73.1c1.5,1,3.5,1.6,5.1,1.6c1.6,0,2.7-0.3,2.7-1.2c0-2.4-8.4-1.4-8.4-7.4c0-3.4,2.9-5.7,7.3-5.7
			c2.1,0,4.1,0.3,5.7,0.9V66c-1.7-0.7-3.5-1.2-5.5-1.2c-1.4,0-2,0.4-2,1.1c0,2,8.4,1.2,8.4,7.5c0,4.2-3.7,5.7-7.7,5.7
			c-3.1,0-5.7-0.8-7.4-1.9L266.6,73.1z"/>
		<path class="st1" d="M301.1,77.1c-1.2,1.1-2.7,1.9-5,1.9c-3.5,0-6.1-2.4-6.1-5.8c0-2.4,1.1-3.9,3-4.9c1.3-0.7,2.9-1,4.7-1.1
			l2.8-0.1v-0.2c0-1.7-1.2-2.3-3.1-2.3c-1.5,0-3.2,0.4-4.5,1.1l-1.8-3.6c2.1-1.1,4.5-1.7,7.3-1.7c5.5,0,7.8,2.4,7.8,6.8v8
			c0,1.1,0,2.5,0.3,3.5h-4.7L301.1,77.1z M298.6,70.8c-0.9,0-1.6,0.2-2.1,0.5c-0.5,0.3-0.8,0.8-0.8,1.5c0,1.2,0.9,1.8,2.2,1.8
			c1.2,0,2.2-0.4,2.6-0.6v-3.3L298.6,70.8z"/>
		<path class="st1" d="M310,60.8h4.9l0.6,1.8c1.8-1.4,3.8-2.3,6-2.3c2.9,0,6,1.1,6,6.6v11.6h-5.7v-9.9c0-1.8-0.3-3.4-2.4-3.4
			c-1.2,0-2.6,0.5-3.6,1.3v12H310V60.8z"/>
		<path class="st1" d="M330.4,69.9c0-5.5,4.1-9.5,10.2-9.5c0.4,0,1.5,0,2,0.1V52h5.7v25.6c-2.1,1-5,1.4-7.1,1.4
			C334.9,79,330.4,75.7,330.4,69.9z M342.5,74.2v-9.1c-0.5-0.1-1-0.1-1.7-0.1c-2.9,0-4.7,1.8-4.7,4.8s2.1,4.6,4.7,4.6
			C341.3,74.4,342.1,74.4,342.5,74.2z"/>
		<path class="st1" d="M359.4,69.8c0-5.8,4.6-9.4,9.8-9.4c2.6,0,4.2,0.7,5.1,1.3v4.7c-1.3-1-2.7-1.5-4.4-1.5c-3,0-4.7,2.2-4.7,4.9
			c0,3.1,1.8,4.7,4.4,4.7c1.5,0,2.7-0.5,4.1-1.2l1.6,3.8c-1.5,1.1-3.9,1.8-6.5,1.8C362.7,79,359.4,75.1,359.4,69.8z"/>
		<path class="st1" d="M376.8,69.7c0-5.4,3.8-9.3,9.4-9.3c5.5,0,9.4,3.9,9.4,9.3c0,5.4-3.8,9.3-9.4,9.3
			C380.6,79,376.8,75.1,376.8,69.7z M389.7,69.7c0-2.7-1.1-4.8-3.6-4.8c-2.5,0-3.6,2.1-3.6,4.8c0,2.7,1.1,4.9,3.6,4.9
			C388.7,74.5,389.7,72.4,389.7,69.7z"/>
		<path class="st1" d="M398.5,60.8h4.9l0.6,1.8c1.8-1.4,3.8-2.3,6-2.3c2.9,0,6,1.1,6,6.6v11.6h-5.7v-9.9c0-1.8-0.3-3.4-2.4-3.4
			c-1.2,0-2.6,0.5-3.6,1.3v12h-5.7V60.8z"/>
		<path class="st1" d="M418.8,69.9c0-5.5,4.1-9.5,10.2-9.5c0.4,0,1.5,0,2,0.1V52h5.7v25.6c-2.1,1-5,1.4-7.1,1.4
			C423.3,79,418.8,75.7,418.8,69.9z M431,74.2v-9.1c-0.5-0.1-1-0.1-1.7-0.1c-2.9,0-4.7,1.8-4.7,4.8s2.1,4.6,4.7,4.6
			C429.8,74.4,430.5,74.4,431,74.2z"/>
		<path class="st1" d="M440,55.5c0-1.8,1.5-3.2,3.4-3.2s3.4,1.4,3.4,3.2c0,1.8-1.5,3.3-3.4,3.3S440,57.3,440,55.5z M440.6,60.8h5.7
			v17.8h-5.7V60.8z"/>
		<path class="st1" d="M451.8,73.8v-8.6h-3.3v-4.4h3.3v-4.2l5.7-1.6v5.8h5.4l-1.3,4.4h-4.1v7.1c0,1.7,0.5,2.3,1.7,2.3
			c0.9,0,1.9-0.3,2.6-0.8l1.6,3.8c-1.4,0.9-3.9,1.4-5.7,1.4C454.1,79,451.8,77,451.8,73.8z"/>
		<path class="st1" d="M464.9,55.5c0-1.8,1.5-3.2,3.4-3.2s3.4,1.4,3.4,3.2c0,1.8-1.5,3.3-3.4,3.3S464.9,57.3,464.9,55.5z
			 M465.4,60.8h5.7v17.8h-5.7V60.8z"/>
		<path class="st1" d="M474,69.7c0-5.4,3.8-9.3,9.4-9.3c5.5,0,9.4,3.9,9.4,9.3c0,5.4-3.8,9.3-9.4,9.3C477.9,79,474,75.1,474,69.7z
			 M487,69.7c0-2.7-1.1-4.8-3.6-4.8c-2.5,0-3.6,2.1-3.6,4.8c0,2.7,1.1,4.9,3.6,4.9C485.9,74.5,487,72.4,487,69.7z"/>
		<path class="st1" d="M495.8,60.8h4.9l0.6,1.8c1.8-1.4,3.8-2.3,6-2.3c2.9,0,6,1.1,6,6.6v11.6h-5.7v-9.9c0-1.8-0.3-3.4-2.4-3.4
			c-1.2,0-2.6,0.5-3.6,1.3v12h-5.7V60.8z"/>
		<path class="st1" d="M517.3,73.1c1.5,1,3.5,1.6,5.1,1.6c1.6,0,2.7-0.3,2.7-1.2c0-2.4-8.4-1.4-8.4-7.4c0-3.4,2.9-5.7,7.3-5.7
			c2.1,0,4.1,0.3,5.7,0.9V66c-1.7-0.7-3.5-1.2-5.5-1.2c-1.4,0-2,0.4-2,1.1c0,2,8.4,1.2,8.4,7.5c0,4.2-3.7,5.7-7.7,5.7
			c-3.1,0-5.7-0.8-7.4-1.9L517.3,73.1z"/>
		<path class="st1" d="M534.2,75.9c0-1.8,1.4-3.1,3-3.1c1.7,0,3,1.3,3,3.1c0,1.8-1.4,3.1-3,3.1C535.6,79,534.2,77.7,534.2,75.9z"/>
	</g>
</g>
</svg>
