<?xml version="1.0" encoding="utf-8"?>
<!-- Generator: Adobe Illustrator 25.0.1, SVG Export Plug-In . SVG Version: 6.00 Build 0)  -->
<svg version="1.1" id="Layer_1" xmlns="http://www.w3.org/2000/svg" xmlns:xlink="http://www.w3.org/1999/xlink" x="0px" y="0px"
	 viewBox="0 0 278 25" style="enable-background:new 0 0 278 25;" xml:space="preserve">
<style type="text/css">
	.st0{opacity:0.5;}
	.st1{fill:#FFFFFF;}
</style>
<g>
	<g class="st0">
		<path d="M6.6,3.7H1.3V1.8h12.9v1.9H8.8v15.5H6.6V3.7z"/>
		<path d="M15.4,13.4c0.1,3.1,2,4.3,4.3,4.3c1.6,0,2.6-0.3,3.5-0.6l0.4,1.6c-0.8,0.4-2.2,0.8-4.2,0.8c-3.8,0-6.1-2.5-6.1-6.3
			c0-3.8,2.2-6.7,5.9-6.7c4.1,0,5.2,3.6,5.2,5.9c0,0.5-0.1,0.8-0.1,1.1H15.4z M22.1,11.7c0-1.4-0.6-3.7-3.2-3.7
			c-2.3,0-3.3,2.1-3.5,3.7H22.1z"/>
		<path d="M27.1,10.6c0-1.5,0-2.7-0.1-3.9h2l0.1,2.5h0.1c0.6-1.7,1.9-2.7,3.5-2.7c0.3,0,0.4,0,0.6,0.1v2.1c-0.2-0.1-0.5-0.1-0.8-0.1
			c-1.6,0-2.7,1.2-3,2.9c-0.1,0.3-0.1,0.7-0.1,1.1v6.7h-2.2V10.6z"/>
		<path d="M35.7,10.1c0-1.3,0-2.3-0.1-3.4h2l0.1,2h0.1c0.7-1.2,1.9-2.3,3.9-2.3c1.7,0,3,1,3.5,2.5h0.1c0.4-0.7,0.9-1.2,1.4-1.6
			c0.7-0.6,1.6-0.9,2.8-0.9c1.7,0,4.1,1.1,4.1,5.4v7.4h-2.2v-7.1c0-2.4-0.9-3.8-2.7-3.8c-1.3,0-2.3,1-2.7,2.1
			c-0.1,0.3-0.2,0.7-0.2,1.1v7.7h-2.2v-7.5c0-2-0.9-3.4-2.6-3.4c-1.4,0-2.5,1.1-2.8,2.3c-0.1,0.3-0.2,0.7-0.2,1.1v7.5h-2.2V10.1z"/>
		<path d="M56.9,16.9c0.7,0.4,1.9,0.9,3,0.9c1.7,0,2.4-0.8,2.4-1.9c0-1.1-0.6-1.7-2.3-2.3c-2.2-0.8-3.3-2-3.3-3.5
			c0-2,1.6-3.7,4.3-3.7c1.3,0,2.4,0.4,3.1,0.8l-0.6,1.7c-0.5-0.3-1.4-0.7-2.6-0.7c-1.3,0-2.1,0.8-2.1,1.7c0,1,0.7,1.5,2.4,2.1
			c2.2,0.8,3.3,1.9,3.3,3.8c0,2.2-1.7,3.7-4.7,3.7c-1.4,0-2.6-0.3-3.5-0.9L56.9,16.9z"/>
		<path d="M83.8,19.2c-0.5-0.5-1-1-1.6-1.7c-1.5,1.4-3.2,2-5.1,2c-3.4,0-5.3-2.3-5.3-4.9c0-2.4,1.4-4,3.4-5.1V9.4
			c-0.9-1.1-1.4-2.4-1.4-3.6c0-2.1,1.5-4.3,4.4-4.3C80.3,1.5,82,3,82,5.2C82,7,81,8.5,78.2,9.9v0.1c1.5,1.7,3.1,3.6,4.2,4.9
			c0.8-1.2,1.3-2.9,1.7-5.1h2.1c-0.5,2.7-1.2,4.9-2.5,6.4c0.9,1,1.8,2,2.9,3.1H83.8z M81.1,16.2c-1-1.1-3-3.3-4.9-5.5
			c-0.9,0.6-2.2,1.7-2.2,3.5c0,2,1.5,3.5,3.6,3.5C79,17.8,80.3,17.1,81.1,16.2z M75.8,5.6c0,1.2,0.6,2.2,1.3,3.1
			c1.8-1,2.9-1.9,2.9-3.4c0-1.1-0.6-2.2-2-2.2C76.6,3.1,75.8,4.3,75.8,5.6z"/>
		<path d="M106.2,18.6c-0.8,0.4-2.5,0.8-4.6,0.8c-4.9,0-8.6-3.1-8.6-8.8c0-5.4,3.7-9.1,9.1-9.1c2.2,0,3.5,0.5,4.1,0.8l-0.5,1.8
			c-0.9-0.4-2.1-0.7-3.5-0.7c-4.1,0-6.8,2.6-6.8,7.2c0,4.3,2.5,7,6.7,7c1.4,0,2.8-0.3,3.7-0.7L106.2,18.6z"/>
		<path d="M120,12.8c0,4.6-3.2,6.6-6.2,6.6c-3.4,0-6-2.5-6-6.4c0-4.2,2.7-6.6,6.2-6.6C117.5,6.4,120,9,120,12.8z M110.1,13
			c0,2.7,1.6,4.8,3.8,4.8c2.2,0,3.8-2,3.8-4.9c0-2.1-1.1-4.8-3.7-4.8C111.2,8.1,110.1,10.6,110.1,13z"/>
		<path d="M122.8,10.1c0-1.3,0-2.3-0.1-3.4h2l0.1,2.1h0.1c0.6-1.2,2.1-2.3,4.1-2.3c1.7,0,4.4,1,4.4,5.3v7.5h-2.3V12
			c0-2-0.7-3.7-2.9-3.7c-1.5,0-2.7,1.1-3,2.3c-0.1,0.3-0.2,0.7-0.2,1.1v7.5h-2.3V10.1z"/>
		<path d="M147.9,0.9V16c0,1.1,0,2.4,0.1,3.2h-2l-0.1-2.2h-0.1c-0.7,1.4-2.2,2.5-4.3,2.5c-3,0-5.3-2.6-5.3-6.4
			c0-4.2,2.6-6.7,5.6-6.7c1.9,0,3.2,0.9,3.8,1.9h0.1V0.9H147.9z M145.7,11.8c0-0.3,0-0.7-0.1-1c-0.3-1.4-1.6-2.6-3.3-2.6
			c-2.4,0-3.7,2.1-3.7,4.8c0,2.5,1.2,4.6,3.7,4.6c1.5,0,2.9-1,3.3-2.7c0.1-0.3,0.1-0.6,0.1-1V11.8z"/>
		<path d="M154.2,3.2c0,0.8-0.5,1.4-1.4,1.4c-0.8,0-1.4-0.6-1.4-1.4c0-0.8,0.6-1.4,1.4-1.4C153.7,1.8,154.2,2.4,154.2,3.2z
			 M151.7,19.2V6.7h2.3v12.5H151.7z"/>
		<path d="M160.5,3.1v3.6h3.3v1.7h-3.3v6.7c0,1.5,0.4,2.4,1.7,2.4c0.6,0,1-0.1,1.3-0.2l0.1,1.7c-0.4,0.2-1.1,0.3-2,0.3
			c-1.1,0-1.9-0.3-2.5-1c-0.6-0.7-0.9-1.8-0.9-3.3V8.4h-1.9V6.7h1.9v-3L160.5,3.1z"/>
		<path d="M168.8,3.2c0,0.8-0.5,1.4-1.4,1.4c-0.8,0-1.4-0.6-1.4-1.4c0-0.8,0.6-1.4,1.4-1.4C168.3,1.8,168.8,2.4,168.8,3.2z
			 M166.3,19.2V6.7h2.3v12.5H166.3z"/>
		<path d="M183.7,12.8c0,4.6-3.2,6.6-6.2,6.6c-3.4,0-6-2.5-6-6.4c0-4.2,2.7-6.6,6.2-6.6C181.2,6.4,183.7,9,183.7,12.8z M173.7,13
			c0,2.7,1.6,4.8,3.8,4.8c2.2,0,3.8-2,3.8-4.9c0-2.1-1.1-4.8-3.7-4.8C174.9,8.1,173.7,10.6,173.7,13z"/>
		<path d="M186.5,10.1c0-1.3,0-2.3-0.1-3.4h2l0.1,2.1h0.1c0.6-1.2,2.1-2.3,4.1-2.3c1.7,0,4.4,1,4.4,5.3v7.5h-2.3V12
			c0-2-0.7-3.7-2.9-3.7c-1.5,0-2.7,1.1-3,2.3c-0.1,0.3-0.2,0.7-0.2,1.1v7.5h-2.3V10.1z"/>
		<path d="M200.5,16.9c0.7,0.4,1.9,0.9,3,0.9c1.7,0,2.4-0.8,2.4-1.9c0-1.1-0.6-1.7-2.3-2.3c-2.2-0.8-3.3-2-3.3-3.5
			c0-2,1.6-3.7,4.3-3.7c1.3,0,2.4,0.4,3.1,0.8l-0.6,1.7c-0.5-0.3-1.4-0.7-2.6-0.7c-1.3,0-2.1,0.8-2.1,1.7c0,1,0.7,1.5,2.4,2.1
			c2.2,0.8,3.3,1.9,3.3,3.8c0,2.2-1.7,3.7-4.7,3.7c-1.4,0-2.6-0.3-3.5-0.9L200.5,16.9z"/>
		<path d="M219.4,13.7l-1.8,5.5h-2.3l5.9-17.4h2.7l5.9,17.4h-2.4l-1.9-5.5H219.4z M225.1,12l-1.7-5c-0.4-1.1-0.6-2.2-0.9-3.2h-0.1
			c-0.3,1-0.5,2.1-0.9,3.1l-1.7,5H225.1z"/>
		<path d="M232.3,10.8c0-1.6-0.1-2.9-0.1-4.1h2l0.1,2.1h0.1c0.9-1.5,2.4-2.4,4.4-2.4c3,0,5.3,2.6,5.3,6.4c0,4.5-2.7,6.7-5.7,6.7
			c-1.7,0-3.1-0.7-3.8-2h-0.1v6.8h-2.2V10.8z M234.5,14.1c0,0.3,0.1,0.6,0.1,0.9c0.4,1.6,1.8,2.7,3.4,2.7c2.4,0,3.8-2,3.8-4.8
			c0-2.5-1.3-4.6-3.7-4.6c-1.5,0-3,1.1-3.4,2.8c-0.1,0.3-0.2,0.6-0.2,0.9V14.1z"/>
		<path d="M246.9,10.8c0-1.6-0.1-2.9-0.1-4.1h2l0.1,2.1h0.1c0.9-1.5,2.4-2.4,4.4-2.4c3,0,5.3,2.6,5.3,6.4c0,4.5-2.7,6.7-5.7,6.7
			c-1.7,0-3.1-0.7-3.8-2h-0.1v6.8h-2.2V10.8z M249.2,14.1c0,0.3,0.1,0.6,0.1,0.9c0.4,1.6,1.8,2.7,3.4,2.7c2.4,0,3.8-2,3.8-4.8
			c0-2.5-1.3-4.6-3.7-4.6c-1.5,0-3,1.1-3.4,2.8c-0.1,0.3-0.2,0.6-0.2,0.9V14.1z"/>
		<path d="M261.6,0.9h2.3v18.3h-2.3V0.9z"/>
		<path d="M268.6,6.7l2.7,7.4c0.3,0.8,0.6,1.8,0.8,2.6h0.1c0.2-0.7,0.5-1.7,0.8-2.6l2.5-7.3h2.4l-3.4,8.9c-1.6,4.3-2.7,6.5-4.3,7.8
			c-1.1,1-2.2,1.4-2.8,1.5l-0.6-1.9c0.6-0.2,1.3-0.5,2-1.1c0.6-0.5,1.4-1.4,1.9-2.5c0.1-0.2,0.2-0.4,0.2-0.5c0-0.1-0.1-0.3-0.2-0.6
			l-4.6-11.5H268.6z"/>
	</g>
	<g>
		<path class="st1" d="M5.5,2.9H0.2V1h12.9v1.9H7.7v15.5H5.5V2.9z"/>
		<path class="st1" d="M14.3,12.6c0.1,3.1,2,4.3,4.3,4.3c1.6,0,2.6-0.3,3.5-0.6l0.4,1.6c-0.8,0.4-2.2,0.8-4.2,0.8
			c-3.8,0-6.1-2.5-6.1-6.3c0-3.8,2.2-6.7,5.9-6.7c4.1,0,5.2,3.6,5.2,5.9c0,0.5-0.1,0.8-0.1,1.1H14.3z M21,11c0-1.4-0.6-3.7-3.2-3.7
			c-2.3,0-3.3,2.1-3.5,3.7H21z"/>
		<path class="st1" d="M26,9.8c0-1.5,0-2.7-0.1-3.9h2L28,8.4h0.1c0.6-1.7,1.9-2.7,3.5-2.7c0.3,0,0.4,0,0.6,0.1v2.1
			c-0.2-0.1-0.5-0.1-0.8-0.1c-1.6,0-2.7,1.2-3,2.9c-0.1,0.3-0.1,0.7-0.1,1.1v6.7H26V9.8z"/>
		<path class="st1" d="M34.6,9.3c0-1.3,0-2.3-0.1-3.4h2l0.1,2h0.1c0.7-1.2,1.9-2.3,3.9-2.3c1.7,0,3,1,3.5,2.5h0.1
			c0.4-0.7,0.9-1.2,1.4-1.6c0.7-0.6,1.6-0.9,2.8-0.9c1.7,0,4.1,1.1,4.1,5.4v7.4h-2.2v-7.1c0-2.4-0.9-3.8-2.7-3.8
			c-1.3,0-2.3,1-2.7,2.1c-0.1,0.3-0.2,0.7-0.2,1.1v7.7h-2.2v-7.5c0-2-0.9-3.4-2.6-3.4c-1.4,0-2.5,1.1-2.8,2.3
			c-0.1,0.3-0.2,0.7-0.2,1.1v7.5h-2.2V9.3z"/>
		<path class="st1" d="M55.8,16.1c0.7,0.4,1.9,0.9,3,0.9c1.7,0,2.4-0.8,2.4-1.9c0-1.1-0.6-1.7-2.3-2.3c-2.2-0.8-3.3-2-3.3-3.5
			c0-2,1.6-3.7,4.3-3.7c1.3,0,2.4,0.4,3.1,0.8l-0.6,1.7c-0.5-0.3-1.4-0.7-2.6-0.7c-1.3,0-2.1,0.8-2.1,1.7c0,1,0.7,1.5,2.4,2.1
			c2.2,0.8,3.3,1.9,3.3,3.8c0,2.2-1.7,3.7-4.7,3.7c-1.4,0-2.6-0.3-3.5-0.9L55.8,16.1z"/>
		<path class="st1" d="M82.8,18.4c-0.5-0.5-1-1-1.6-1.7c-1.5,1.4-3.2,2-5.1,2c-3.4,0-5.3-2.3-5.3-4.9c0-2.4,1.4-4,3.4-5.1V8.7
			c-0.9-1.1-1.4-2.4-1.4-3.6c0-2.1,1.5-4.3,4.4-4.3c2.2,0,3.8,1.4,3.8,3.7c0,1.8-1.1,3.3-3.8,4.6v0.1c1.5,1.7,3.1,3.6,4.2,4.9
			c0.8-1.2,1.3-2.9,1.7-5.1h2.1c-0.5,2.7-1.2,4.9-2.5,6.4c0.9,1,1.8,2,2.9,3.1H82.8z M80,15.4c-1-1.1-3-3.3-4.9-5.5
			c-0.9,0.6-2.2,1.7-2.2,3.5c0,2,1.5,3.5,3.6,3.5C77.9,17,79.2,16.3,80,15.4z M74.7,4.8c0,1.2,0.6,2.2,1.3,3.1
			c1.8-1,2.9-1.9,2.9-3.4c0-1.1-0.6-2.2-2-2.2C75.5,2.3,74.7,3.5,74.7,4.8z"/>
		<path class="st1" d="M105.1,17.9c-0.8,0.4-2.5,0.8-4.6,0.8c-4.9,0-8.6-3.1-8.6-8.8c0-5.4,3.7-9.1,9.1-9.1c2.2,0,3.5,0.5,4.1,0.8
			l-0.5,1.8c-0.9-0.4-2.1-0.7-3.5-0.7c-4.1,0-6.8,2.6-6.8,7.2c0,4.3,2.5,7,6.7,7c1.4,0,2.8-0.3,3.7-0.7L105.1,17.9z"/>
		<path class="st1" d="M118.9,12.1c0,4.6-3.2,6.6-6.2,6.6c-3.4,0-6-2.5-6-6.4c0-4.2,2.7-6.6,6.2-6.6C116.4,5.6,118.9,8.3,118.9,12.1
			z M109,12.2c0,2.7,1.6,4.8,3.8,4.8c2.2,0,3.8-2,3.8-4.9c0-2.1-1.1-4.8-3.7-4.8C110.1,7.4,109,9.8,109,12.2z"/>
		<path class="st1" d="M121.7,9.3c0-1.3,0-2.3-0.1-3.4h2l0.1,2.1h0.1c0.6-1.2,2.1-2.3,4.1-2.3c1.7,0,4.4,1,4.4,5.3v7.5h-2.3v-7.2
			c0-2-0.7-3.7-2.9-3.7c-1.5,0-2.7,1.1-3,2.3c-0.1,0.3-0.2,0.7-0.2,1.1v7.5h-2.3V9.3z"/>
		<path class="st1" d="M146.9,0.1v15.1c0,1.1,0,2.4,0.1,3.2h-2l-0.1-2.2h-0.1c-0.7,1.4-2.2,2.5-4.3,2.5c-3,0-5.3-2.6-5.3-6.3
			c0-4.2,2.6-6.7,5.6-6.7c1.9,0,3.2,0.9,3.8,1.9h0.1V0.1H146.9z M144.6,11c0-0.3,0-0.7-0.1-1c-0.3-1.4-1.6-2.6-3.3-2.6
			c-2.4,0-3.7,2.1-3.7,4.8c0,2.5,1.2,4.6,3.7,4.6c1.5,0,2.9-1,3.3-2.7c0.1-0.3,0.1-0.6,0.1-1V11z"/>
		<path class="st1" d="M153.2,2.4c0,0.8-0.5,1.4-1.4,1.4c-0.8,0-1.4-0.6-1.4-1.4c0-0.8,0.6-1.4,1.4-1.4C152.6,1,153.2,1.6,153.2,2.4
			z M150.6,18.4V5.9h2.3v12.5H150.6z"/>
		<path class="st1" d="M159.4,2.3v3.6h3.3v1.7h-3.3v6.7c0,1.5,0.4,2.4,1.7,2.4c0.6,0,1-0.1,1.3-0.2l0.1,1.7c-0.4,0.2-1.1,0.3-2,0.3
			c-1.1,0-1.9-0.3-2.5-1c-0.6-0.7-0.9-1.8-0.9-3.3V7.7h-1.9V5.9h1.9v-3L159.4,2.3z"/>
		<path class="st1" d="M167.7,2.4c0,0.8-0.5,1.4-1.4,1.4c-0.8,0-1.4-0.6-1.4-1.4c0-0.8,0.6-1.4,1.4-1.4C167.2,1,167.7,1.6,167.7,2.4
			z M165.2,18.4V5.9h2.3v12.5H165.2z"/>
		<path class="st1" d="M182.6,12.1c0,4.6-3.2,6.6-6.2,6.6c-3.4,0-6-2.5-6-6.4c0-4.2,2.7-6.6,6.2-6.6C180.1,5.6,182.6,8.3,182.6,12.1
			z M172.6,12.2c0,2.7,1.6,4.8,3.8,4.8c2.2,0,3.8-2,3.8-4.9c0-2.1-1.1-4.8-3.7-4.8C173.8,7.4,172.6,9.8,172.6,12.2z"/>
		<path class="st1" d="M185.4,9.3c0-1.3,0-2.3-0.1-3.4h2l0.1,2.1h0.1c0.6-1.2,2.1-2.3,4.1-2.3c1.7,0,4.4,1,4.4,5.3v7.5h-2.3v-7.2
			c0-2-0.7-3.7-2.9-3.7c-1.5,0-2.7,1.1-3,2.3c-0.1,0.3-0.2,0.7-0.2,1.1v7.5h-2.3V9.3z"/>
		<path class="st1" d="M199.4,16.1c0.7,0.4,1.9,0.9,3,0.9c1.7,0,2.4-0.8,2.4-1.9c0-1.1-0.6-1.7-2.3-2.3c-2.2-0.8-3.3-2-3.3-3.5
			c0-2,1.6-3.7,4.3-3.7c1.3,0,2.4,0.4,3.1,0.8l-0.6,1.7c-0.5-0.3-1.4-0.7-2.6-0.7c-1.3,0-2.1,0.8-2.1,1.7c0,1,0.7,1.5,2.4,2.1
			c2.2,0.8,3.3,1.9,3.3,3.8c0,2.2-1.7,3.7-4.7,3.7c-1.4,0-2.6-0.3-3.5-0.9L199.4,16.1z"/>
		<path class="st1" d="M218.3,13l-1.8,5.5h-2.3L220.1,1h2.7l5.9,17.4h-2.4l-1.9-5.5H218.3z M224,11.2l-1.7-5
			C222,5.1,221.7,4,221.4,3h-0.1c-0.3,1-0.5,2.1-0.9,3.1l-1.7,5H224z"/>
		<path class="st1" d="M231.2,10c0-1.6-0.1-2.9-0.1-4.1h2l0.1,2.1h0.1c0.9-1.5,2.4-2.4,4.4-2.4c3,0,5.3,2.6,5.3,6.4
			c0,4.5-2.7,6.7-5.7,6.7c-1.7,0-3.1-0.7-3.8-2h-0.1v6.8h-2.2V10z M233.4,13.3c0,0.3,0.1,0.6,0.1,0.9c0.4,1.6,1.8,2.7,3.4,2.7
			c2.4,0,3.8-2,3.8-4.8c0-2.5-1.3-4.6-3.7-4.6c-1.5,0-3,1.1-3.4,2.8c-0.1,0.3-0.2,0.6-0.2,0.9V13.3z"/>
		<path class="st1" d="M245.9,10c0-1.6-0.1-2.9-0.1-4.1h2l0.1,2.1h0.1c0.9-1.5,2.4-2.4,4.4-2.4c3,0,5.3,2.6,5.3,6.4
			c0,4.5-2.7,6.7-5.7,6.7c-1.7,0-3.1-0.7-3.8-2h-0.1v6.8h-2.2V10z M248.1,13.3c0,0.3,0.1,0.6,0.1,0.9c0.4,1.6,1.8,2.7,3.4,2.7
			c2.4,0,3.8-2,3.8-4.8c0-2.5-1.3-4.6-3.7-4.6c-1.5,0-3,1.1-3.4,2.8c-0.1,0.3-0.2,0.6-0.2,0.9V13.3z"/>
		<path class="st1" d="M260.5,0.1h2.3v18.3h-2.3V0.1z"/>
		<path class="st1" d="M267.5,5.9l2.7,7.4c0.3,0.8,0.6,1.8,0.8,2.6h0.1c0.2-0.7,0.5-1.7,0.8-2.6l2.5-7.3h2.4l-3.4,8.9
			c-1.6,4.3-2.7,6.5-4.3,7.8c-1.1,1-2.2,1.4-2.8,1.5l-0.6-1.9c0.6-0.2,1.3-0.5,2-1.1c0.6-0.5,1.4-1.4,1.9-2.5
			c0.1-0.2,0.2-0.4,0.2-0.5c0-0.1-0.1-0.3-0.2-0.6L265,5.9H267.5z"/>
	</g>
</g>
</svg>
